<svg viewBox="96.5984682713348 42.51896 248.2580634573304 305.36344" xmlns="http://www.w3.org/2000/svg" id="Layer_2" style="max-height: 500px" width="248.2580634573304" height="305.36344"><defs><style>.cls-1{fill:none;}.cls-2{fill:#2ab476;}.cls-3{fill:#00386b;}</style></defs><g id="Layer_1-2"><rect height="483.17" width="882.91" class="cls-1"/><path d="M94.42,413.08v-62.56h24.95c4.43,0,8.08.46,10.96,1.39,2.88.93,5.15,2.2,6.83,3.82,1.67,1.62,2.85,3.49,3.51,5.6.66,2.12,1,4.33,1,6.65,0,3.48-.78,6.34-2.32,8.6-1.55,2.26-3.56,4.04-6.02,5.34-2.47,1.3-5.26,2.22-8.39,2.74-3.13.52-6.28.78-9.44.78h-14.61v27.63h-6.45ZM115.66,380.41c3.04,0,5.75-.17,8.16-.52,2.4-.35,4.44-1,6.12-1.95,1.67-.96,2.97-2.26,3.89-3.91.92-1.65,1.38-3.81,1.38-6.47,0-3.94-1.41-6.92-4.22-8.95-2.81-2.03-7.29-3.04-13.42-3.04h-16.69v24.85h14.8Z" class="cls-2"/><path d="M171.34,414.3c-3.16-.06-6.12-.58-8.87-1.56-2.75-.98-5.15-2.46-7.21-4.43-2.06-1.97-3.68-4.43-4.88-7.39-1.2-2.95-1.8-6.4-1.8-10.34,0-3.3.47-6.39,1.42-9.25.95-2.87,2.37-5.37,4.27-7.52,1.9-2.14,4.27-3.84,7.11-5.08,2.85-1.25,6.17-1.87,9.96-1.87s7.21.62,10.05,1.87c2.85,1.25,5.22,2.93,7.11,5.04,1.9,2.12,3.3,4.62,4.22,7.52.92,2.9,1.38,6,1.38,9.3,0,3.59-.54,6.84-1.61,9.73-1.08,2.9-2.61,5.39-4.6,7.47-1.99,2.09-4.4,3.69-7.21,4.82-2.81,1.13-5.93,1.69-9.34,1.69ZM188.04,390.58c0-2.66-.32-5.16-.95-7.47-.63-2.32-1.61-4.33-2.94-6.04-1.33-1.71-3.04-3.05-5.12-4.04-2.09-.98-4.65-1.48-7.68-1.48s-5.52.54-7.64,1.61c-2.12,1.07-3.84,2.49-5.17,4.26-1.33,1.77-2.31,3.79-2.94,6.08-.63,2.29-.95,4.65-.95,7.08,0,2.78.36,5.34,1.09,7.69.73,2.35,1.79,4.36,3.18,6.04,1.39,1.68,3.13,2.98,5.22,3.91,2.09.93,4.49,1.39,7.21,1.39,2.97,0,5.52-.53,7.64-1.61,2.12-1.07,3.84-2.5,5.17-4.3,1.33-1.79,2.31-3.82,2.94-6.08.63-2.26.95-4.61.95-7.04Z" class="cls-2"/><path d="M210.52,413.08h-5.69v-45.01h5.69v8.43h.19c1.58-3.59,3.62-6.1,6.12-7.52,2.5-1.42,5.8-2.13,9.91-2.13v5.65c-3.23-.06-5.88.41-7.97,1.39-2.09.99-3.75,2.32-4.98,4-1.23,1.68-2.09,3.66-2.56,5.95-.47,2.29-.71,4.68-.71,7.17v22.07Z" class="cls-2"/><path d="M253.39,413.26c-.7.12-1.61.32-2.75.61-1.14.29-2.4.43-3.79.43-2.85,0-5.01-.65-6.5-1.95-1.49-1.3-2.23-3.63-2.23-6.99v-32.93h-6.92v-4.34h6.92v-12.51h5.69v12.51h9.2v4.34h-9.2v30.85c0,1.1.03,2.06.1,2.87.06.81.25,1.48.57,2,.32.52.81.9,1.47,1.13.66.23,1.6.35,2.8.35.76,0,1.53-.06,2.32-.17.79-.12,1.57-.26,2.32-.43v4.26Z" class="cls-2"/><path d="M257.56,372.42v-4.34h7.3v-7.13c0-3.59.79-6.43,2.37-8.51,1.58-2.09,4.27-3.13,8.06-3.13.89,0,1.71.03,2.47.09.76.06,1.52.15,2.28.26v4.78c-1.27-.29-2.4-.43-3.42-.43-1.46,0-2.59.25-3.41.74-.82.49-1.42,1.14-1.8,1.96-.38.81-.62,1.72-.71,2.74-.09,1.01-.14,2.04-.14,3.08v5.56h9.49v4.34h-9.49v40.66h-5.69v-40.66h-7.3Z" class="cls-2"/><path d="M308.4,414.3c-3.16-.06-6.12-.58-8.87-1.56-2.75-.98-5.15-2.46-7.21-4.43-2.06-1.97-3.68-4.43-4.88-7.39-1.2-2.95-1.8-6.4-1.8-10.34,0-3.3.47-6.39,1.42-9.25.95-2.87,2.37-5.37,4.27-7.52,1.9-2.14,4.27-3.84,7.11-5.08,2.85-1.25,6.17-1.87,9.96-1.87s7.21.62,10.05,1.87c2.85,1.25,5.22,2.93,7.11,5.04,1.9,2.12,3.3,4.62,4.22,7.52.92,2.9,1.38,6,1.38,9.3,0,3.59-.54,6.84-1.61,9.73-1.08,2.9-2.61,5.39-4.6,7.47-1.99,2.09-4.4,3.69-7.21,4.82-2.81,1.13-5.93,1.69-9.34,1.69ZM325.1,390.58c0-2.66-.32-5.16-.95-7.47-.63-2.32-1.61-4.33-2.94-6.04-1.33-1.71-3.04-3.05-5.12-4.04-2.09-.98-4.65-1.48-7.68-1.48s-5.52.54-7.64,1.61c-2.12,1.07-3.84,2.49-5.17,4.26-1.33,1.77-2.31,3.79-2.94,6.08-.63,2.29-.95,4.65-.95,7.08,0,2.78.36,5.34,1.09,7.69.73,2.35,1.79,4.36,3.18,6.04,1.39,1.68,3.13,2.98,5.22,3.91,2.09.93,4.49,1.39,7.21,1.39,2.97,0,5.52-.53,7.64-1.61,2.12-1.07,3.84-2.5,5.17-4.3,1.33-1.79,2.31-3.82,2.94-6.08.63-2.26.95-4.61.95-7.04Z" class="cls-2"/><path d="M342.46,413.08v-62.56h5.69v62.56h-5.69Z" class="cls-2"/><path d="M363.23,358.26v-7.73h6.26v7.73h-6.26ZM363.51,413.08v-45.01h5.69v45.01h-5.69Z" class="cls-2"/><path d="M403.25,414.3c-3.16-.06-6.12-.58-8.87-1.56-2.75-.98-5.15-2.46-7.21-4.43-2.06-1.97-3.68-4.43-4.88-7.39-1.2-2.95-1.8-6.4-1.8-10.34,0-3.3.47-6.39,1.42-9.25.95-2.87,2.37-5.37,4.27-7.52,1.9-2.14,4.27-3.84,7.11-5.08,2.85-1.25,6.17-1.87,9.96-1.87s7.21.62,10.05,1.87c2.85,1.25,5.22,2.93,7.11,5.04,1.9,2.12,3.3,4.62,4.22,7.52.92,2.9,1.38,6,1.38,9.3,0,3.59-.54,6.84-1.61,9.73-1.08,2.9-2.61,5.39-4.6,7.47-1.99,2.09-4.4,3.69-7.21,4.82-2.81,1.13-5.93,1.69-9.34,1.69ZM419.95,390.58c0-2.66-.32-5.16-.95-7.47-.63-2.32-1.61-4.33-2.94-6.04-1.33-1.71-3.04-3.05-5.12-4.04-2.09-.98-4.65-1.48-7.68-1.48s-5.52.54-7.64,1.61c-2.12,1.07-3.84,2.49-5.17,4.26-1.33,1.77-2.31,3.79-2.94,6.08-.63,2.29-.95,4.65-.95,7.08,0,2.78.36,5.34,1.09,7.69.73,2.35,1.79,4.36,3.18,6.04,1.39,1.68,3.13,2.98,5.22,3.91,2.09.93,4.49,1.39,7.21,1.39,2.97,0,5.52-.53,7.64-1.61,2.12-1.07,3.84-2.5,5.17-4.3,1.33-1.79,2.31-3.82,2.94-6.08.63-2.26.95-4.61.95-7.04Z" class="cls-2"/><path d="M287.37,177.96s-14.13.94-13.19,16.95c.76,12.91-.01,103.88-.34,138.64l24.37,9.7-10.84-165.29Z" class="cls-3"/><path d="M178.07,125.69s-1.88-12.24-16.52-11.94l-20.7,166.87,8.81,3.51,18.56,7.39,6.62-110.22.4-6.63s55.93-4.65,61.24,51.8l4.94,94.19,26.23,10.44.86-156.43-90.45-48.97Z" class="cls-3"/><path d="M222.21,313l.61-78.06s.45-51.24-47.98-53.65l-6.62,110.22,53.99,21.49Z" class="cls-2"/><polygon points="137.45 97.16 135.2 120.04 163.47 104.03 293.96 177.96 294.64 158.94 163 81.43 137.45 97.16" class="cls-3"/><polygon points="304.7 154.62 304.8 154.42 246.85 80.01 162.06 54.11 140.39 67.3 138.61 85.34 163 71.54 304.7 154.62" class="cls-3"/><path d="M474.05,412.43c-2.96,1.25-5.94,1.87-8.96,1.87-4.76,0-9.04-.83-12.83-2.48-3.8-1.65-7-3.93-9.61-6.83-2.61-2.9-4.61-6.3-6-10.22s-2.09-8.13-2.09-12.65.69-8.94,2.09-12.91c1.39-3.97,3.39-7.44,6-10.39,2.61-2.96,5.81-5.28,9.61-6.96,3.8-1.68,8.08-2.52,12.83-2.52,3.19,0,6.28.48,9.27,1.43,2.99.96,5.68,2.36,8.09,4.22,2.41,1.86,4.39,4.15,5.96,6.87,1.56,2.73,2.52,5.86,2.87,9.39h-13.05c-.81-3.48-2.38-6.09-4.7-7.83-2.32-1.74-5.13-2.61-8.44-2.61-3.07,0-5.68.59-7.83,1.78-2.15,1.19-3.89,2.78-5.22,4.78-1.33,2-2.3,4.28-2.91,6.83-.61,2.55-.91,5.19-.91,7.91s.3,5.15.91,7.61c.61,2.47,1.58,4.68,2.91,6.65,1.33,1.97,3.07,3.55,5.22,4.74,2.15,1.19,4.76,1.78,7.83,1.78,4.52,0,8.02-1.14,10.48-3.44,2.46-2.29,3.9-5.61,4.3-9.96h-13.75v-10.17h26.1v33.57h-8.7l-1.39-7.04c-2.44,3.13-5.13,5.32-8.09,6.57Z" class="cls-3"/><path d="M532.43,412.91v-6.26h-.26c-1.56,2.61-3.6,4.49-6.09,5.65-2.49,1.16-5.04,1.74-7.66,1.74-3.31,0-6.02-.43-8.13-1.3-2.12-.87-3.79-2.1-5-3.7-1.22-1.59-2.07-3.54-2.57-5.83-.49-2.29-.74-4.83-.74-7.61v-27.66h12.35v25.4c0,3.71.58,6.48,1.74,8.3,1.16,1.83,3.22,2.74,6.18,2.74,3.36,0,5.8-1,7.31-3,1.51-2,2.26-5.29,2.26-9.87v-23.57h12.35v44.96h-11.74Z" class="cls-3"/><path d="M553.04,381.78c.18-2.9.9-5.3,2.18-7.22,1.28-1.91,2.9-3.45,4.87-4.61,1.97-1.16,4.19-1.99,6.66-2.48,2.46-.49,4.94-.74,7.44-.74,2.26,0,4.55.16,6.87.48,2.32.32,4.44.94,6.35,1.87,1.91.93,3.48,2.22,4.7,3.87,1.22,1.65,1.83,3.84,1.83,6.57v23.39c0,2.03.12,3.97.35,5.83.23,1.86.64,3.25,1.22,4.17h-12.53c-.23-.7-.42-1.4-.56-2.13-.15-.72-.25-1.46-.31-2.22-1.97,2.03-4.29,3.45-6.96,4.26-2.67.81-5.4,1.22-8.18,1.22-2.15,0-4.15-.26-6-.78-1.86-.52-3.48-1.33-4.87-2.44-1.39-1.1-2.48-2.49-3.26-4.17s-1.18-3.68-1.18-6c0-2.55.45-4.65,1.35-6.3.9-1.65,2.06-2.97,3.48-3.96,1.42-.99,3.05-1.73,4.87-2.22,1.83-.49,3.67-.88,5.53-1.17,1.86-.29,3.68-.52,5.48-.69,1.8-.18,3.39-.43,4.79-.78,1.39-.35,2.49-.86,3.31-1.52.81-.66,1.19-1.64,1.13-2.91,0-1.33-.22-2.39-.65-3.18-.44-.78-1.02-1.39-1.74-1.83-.73-.43-1.57-.72-2.52-.87-.96-.14-1.99-.22-3.09-.22-2.43,0-4.35.52-5.74,1.56-1.39,1.05-2.2,2.78-2.43,5.22h-12.36ZM581.58,390.91c-.52.46-1.17.83-1.96,1.09-.78.26-1.62.48-2.52.65-.9.17-1.84.32-2.83.43-.99.12-1.97.26-2.96.43-.93.17-1.84.41-2.74.7-.9.29-1.68.68-2.35,1.17-.67.49-1.2,1.12-1.61,1.87-.41.76-.61,1.71-.61,2.87s.2,2.03.61,2.78c.41.76.96,1.35,1.65,1.78.69.43,1.51.74,2.43.91.93.18,1.88.26,2.87.26,2.43,0,4.32-.41,5.65-1.22,1.33-.81,2.32-1.78,2.96-2.91.64-1.13,1.03-2.27,1.18-3.44.14-1.16.22-2.09.22-2.78v-4.61Z" class="cls-3"/><path d="M615.25,367.95v8.35h.18c.58-1.39,1.36-2.68,2.35-3.87.99-1.19,2.12-2.2,3.39-3.04,1.28-.84,2.64-1.49,4.09-1.96,1.45-.46,2.96-.7,4.52-.7.81,0,1.71.15,2.7.43v11.48c-.58-.12-1.28-.22-2.09-.31-.81-.09-1.6-.13-2.35-.13-2.26,0-4.17.38-5.74,1.13-1.56.75-2.83,1.78-3.78,3.09-.96,1.3-1.64,2.83-2.05,4.56-.41,1.74-.61,3.62-.61,5.65v20.26h-12.35v-44.96h11.74Z" class="cls-3"/><path d="M667.71,407.17c-1.45,2.43-3.35,4.19-5.7,5.26-2.35,1.07-5,1.61-7.96,1.61-3.36,0-6.32-.65-8.87-1.96-2.55-1.3-4.66-3.07-6.31-5.3-1.65-2.23-2.9-4.8-3.74-7.7s-1.26-5.92-1.26-9.05.42-5.93,1.26-8.74c.84-2.81,2.09-5.29,3.74-7.44,1.65-2.14,3.73-3.87,6.22-5.17,2.49-1.3,5.39-1.96,8.7-1.96,2.67,0,5.2.56,7.61,1.7,2.41,1.13,4.31,2.8,5.7,5h.17v-22.61h12.35v62.09h-11.74v-5.74h-.18ZM667.19,384.95c-.35-1.71-.94-3.22-1.78-4.52-.84-1.3-1.93-2.36-3.26-3.17-1.34-.81-3.02-1.22-5.05-1.22s-3.74.41-5.13,1.22c-1.39.81-2.51,1.89-3.35,3.22-.84,1.33-1.45,2.86-1.83,4.57-.38,1.71-.57,3.49-.57,5.35,0,1.74.2,3.48.61,5.22.41,1.74,1.06,3.29,1.96,4.65.9,1.36,2.03,2.47,3.39,3.31,1.36.84,3,1.26,4.92,1.26,2.03,0,3.73-.41,5.09-1.22,1.36-.81,2.45-1.9,3.26-3.26.81-1.36,1.39-2.91,1.74-4.65.35-1.74.52-3.54.52-5.39s-.17-3.64-.52-5.35Z" class="cls-3"/><path d="M689.28,360.99v-10.17h12.36v10.17h-12.36ZM701.64,367.95v44.96h-12.36v-44.96h12.36Z" class="cls-3"/><path d="M710.86,381.78c.18-2.9.9-5.3,2.18-7.22,1.28-1.91,2.9-3.45,4.87-4.61,1.97-1.16,4.19-1.99,6.66-2.48,2.46-.49,4.94-.74,7.44-.74,2.26,0,4.55.16,6.87.48,2.32.32,4.44.94,6.35,1.87,1.91.93,3.48,2.22,4.7,3.87,1.22,1.65,1.83,3.84,1.83,6.57v23.39c0,2.03.12,3.97.35,5.83.23,1.86.64,3.25,1.22,4.17h-12.53c-.23-.7-.42-1.4-.56-2.13-.15-.72-.25-1.46-.31-2.22-1.97,2.03-4.29,3.45-6.96,4.26-2.67.81-5.4,1.22-8.18,1.22-2.15,0-4.15-.26-6-.78-1.86-.52-3.48-1.33-4.87-2.44-1.39-1.1-2.48-2.49-3.26-4.17-.78-1.68-1.18-3.68-1.18-6,0-2.55.45-4.65,1.35-6.3.9-1.65,2.06-2.97,3.48-3.96,1.42-.99,3.05-1.73,4.87-2.22,1.83-.49,3.67-.88,5.53-1.17,1.86-.29,3.68-.52,5.48-.69,1.8-.18,3.39-.43,4.79-.78,1.39-.35,2.49-.86,3.31-1.52.81-.66,1.19-1.64,1.13-2.91,0-1.33-.22-2.39-.65-3.18-.44-.78-1.02-1.39-1.74-1.83-.73-.43-1.57-.72-2.52-.87-.96-.14-1.99-.22-3.09-.22-2.43,0-4.35.52-5.74,1.56-1.39,1.05-2.2,2.78-2.43,5.22h-12.36ZM739.4,390.91c-.52.46-1.17.83-1.96,1.09-.78.26-1.62.48-2.52.65-.9.17-1.84.32-2.83.43-.99.12-1.97.26-2.96.43-.93.17-1.84.41-2.74.7-.9.29-1.68.68-2.35,1.17-.67.49-1.2,1.12-1.61,1.87-.41.76-.61,1.71-.61,2.87s.2,2.03.61,2.78c.41.76.96,1.35,1.65,1.78.69.43,1.51.74,2.43.91.93.18,1.88.26,2.87.26,2.43,0,4.32-.41,5.65-1.22,1.33-.81,2.32-1.78,2.96-2.91.64-1.13,1.03-2.27,1.18-3.44.14-1.16.22-2.09.22-2.78v-4.61Z" class="cls-3"/><path d="M773.06,367.95v6.26h.26c1.56-2.61,3.6-4.51,6.09-5.7,2.49-1.19,5.04-1.78,7.66-1.78,3.31,0,6.02.45,8.14,1.35,2.12.9,3.78,2.15,5,3.74,1.22,1.59,2.07,3.54,2.57,5.83.49,2.29.74,4.83.74,7.61v27.66h-12.35v-25.4c0-3.71-.58-6.48-1.74-8.31-1.16-1.83-3.22-2.74-6.18-2.74-3.36,0-5.8,1-7.31,3-1.51,2-2.26,5.29-2.26,9.87v23.57h-12.35v-44.96h11.74Z" class="cls-3"/><path d="M805.4,366.83h8.35v1.56h-3.28v8.75h-1.8v-8.75h-3.26v-1.56Z" class="cls-3"/><path d="M814.92,366.83h2.54l2.85,8.07h.03l2.77-8.07h2.51v10.31h-1.72v-7.95h-.03l-2.86,7.95h-1.49l-2.86-7.95h-.03v7.95h-1.72v-10.31Z" class="cls-3"/></g></svg>